<?xml version="1.0"?>
<svg width="512" height="512" xmlns="http://www.w3.org/2000/svg" xmlns:svg="http://www.w3.org/2000/svg" preserveAspectRatio="xMidYMid meet" version="1.0">
 <g class="layer">
  <title>Layer 1</title>
  <g fill="#000000" id="svg_1" transform="matrix(0.1 0 0 -0.1 0 0)">
   <path d="m63,-16c-31,-15 -63,-65 -63,-98c0,-31 28,-84 52,-98c16,-9 85,-15 233,-18c190,-5 214,-8 251,-27c45,-24 100,-81 114,-119c15,-38 730,-2492 730,-2504c0,-5 -86,-117 -192,-248c-227,-282 -253,-327 -252,-447c0,-44 6,-98 13,-120c37,-107 120,-193 228,-237l58,-23l1666,0c1820,0 1704,-4 1735,57c28,54 13,123 -35,155c-25,17 -121,18 -1686,23c-1231,4 -1665,8 -1680,17c-57,33 -83,101 -61,164c7,21 98,144 201,273l189,236l1132,0c757,0 1158,4 1210,11c159,22 288,113 362,257c103,199 824,1749 837,1800c53,201 -46,402 -231,472c-55,20 -64,20 -2003,18l-1948,-3l-22,80c-32,112 -68,180 -128,245c-58,63 -141,112 -228,135c-85,22 -436,21 -482,-1zm4754,-704c51,-30 68,-66 67,-135c0,-58 -15,-91 -414,-939c-308,-651 -424,-889 -452,-921c-71,-80 12,-75 -1277,-73l-1143,3l-304,1040c-167,572 -304,1041 -304,1043c0,1 854,2 1898,2c1863,0 1898,0 1929,-20z" fill="#8b00ef" id="svg_2"/>
   <path d="m1301,-4201c-79,-15 -169,-65 -232,-128c-182,-182 -181,-469 3,-653c252,-252 685,-132 772,214c83,331 -206,633 -543,567zm193,-244c137,-65 176,-241 79,-355c-64,-75 -149,-101 -238,-75c-229,66 -221,386 10,446c40,11 109,3 149,-16z" fill="#8b00ef" id="svg_3"/>
   <path d="m4090,-4201c-143,-28 -287,-155 -339,-300c-56,-153 -10,-359 106,-476c97,-96 196,-137 333,-137c130,0 233,41 324,130c180,178 184,471 7,651c-114,115 -270,163 -431,132zm164,-233c140,-42 205,-193 140,-324c-79,-159 -304,-170 -401,-19c-25,37 -28,52 -28,122c0,62 4,87 19,110c44,68 86,100 151,116c47,11 68,10 119,-5z" fill="#8b00ef" id="svg_4"/>
  </g>
 </g>
</svg>