<?xml version="1.0"?>
<svg width="800" height="800" xmlns="http://www.w3.org/2000/svg" xmlns:svg="http://www.w3.org/2000/svg" preserveAspectRatio="xMidYMid meet" version="1.0">
 <g class="layer">
  <title>Layer 1</title>
  <g fill="#000000" id="svg_1" transform="matrix(0.1 0 0 -0.1 0 0)">
   <path d="m883,-1514c-219,-53 -383,-261 -383,-486c0,-230 172,-442 398,-489c75,-16 6129,-16 6204,0c226,47 398,259 398,489c0,230 -172,442 -398,489c-81,17 -6148,14 -6219,-3z" fill="#a700ef" id="svg_2"/>
   <path d="m883,-3514c-219,-53 -383,-261 -383,-486c0,-230 172,-442 398,-489c75,-16 6129,-16 6204,0c226,47 398,259 398,489c0,230 -172,442 -398,489c-81,17 -6148,14 -6219,-3z" fill="#a700ef" id="svg_3"/>
   <path d="m883,-5514c-219,-53 -383,-261 -383,-486c0,-230 172,-442 398,-489c75,-16 6129,-16 6204,0c226,47 398,259 398,489c0,230 -172,442 -398,489c-81,17 -6148,14 -6219,-3z" fill="#a700ef" id="svg_4"/>
  </g>
 </g>
</svg>