<?xml version="1.0"?>
<svg width="512" height="512" xmlns="http://www.w3.org/2000/svg" xmlns:svg="http://www.w3.org/2000/svg" preserveAspectRatio="xMidYMid meet" version="1.0">
 <g class="layer">
  <title>Layer 1</title>
  <g fill="#000000" id="svg_1" transform="matrix(0.1 0 0 -0.1 0 0)">
   <path d="m1584,-526c-393,-40 -752,-170 -1035,-372c-109,-78 -281,-251 -344,-346c-279,-419 -258,-892 55,-1286l60,-76l-27,-82c-62,-187 -140,-351 -233,-491c-40,-61 -46,-76 -46,-122c0,-57 18,-90 69,-128c36,-27 104,-25 266,8c245,49 527,163 709,284l74,49l46,-14c71,-21 278,-61 356,-69l71,-6l37,-72c128,-247 406,-495 717,-638c462,-213 1028,-261 1548,-132l103,25l77,-49c243,-155 554,-270 826,-304c86,-11 93,-10 133,11c48,24 83,80 83,131c0,36 -13,63 -76,161c-64,98 -145,273 -194,413c-37,109 -39,121 -25,140c8,12 40,53 70,91c74,93 159,266 192,390c23,88 26,119 26,255c0,136 -3,167 -26,255c-32,119 -115,291 -189,390c-255,343 -711,588 -1233,664c-71,11 -131,23 -132,28c-8,23 -109,183 -145,231c-257,333 -710,571 -1233,648c-124,18 -459,26 -580,13zm446,-299c406,-41 777,-196 1016,-424c63,-60 143,-154 143,-168c0,-3 -37,-8 -82,-12c-498,-40 -970,-249 -1265,-559c-215,-227 -323,-483 -323,-768c0,-72 -4,-109 -11,-109c-26,0 -211,42 -288,65c-114,34 -157,33 -212,-6c-112,-78 -209,-139 -269,-169c-67,-34 -270,-113 -276,-108c-1,2 13,39 32,82c40,90 102,269 129,368c26,97 18,124 -66,216c-181,197 -260,393 -246,607c40,610 847,1072 1718,985zm1444,-900c589,-44 1087,-319 1276,-705c57,-117 73,-190 73,-325c0,-213 -66,-370 -235,-556c-91,-101 -99,-128 -70,-236c28,-99 99,-301 135,-380c15,-35 21,-58 14,-58c-24,0 -247,95 -325,138c-46,25 -118,72 -160,104c-86,64 -127,77 -188,59c-271,-79 -434,-104 -680,-104c-194,1 -330,17 -495,58c-432,108 -772,344 -920,639c-108,216 -108,456 0,672c189,375 691,652 1260,693c155,12 163,12 315,1z" fill="#a700ef" id="svg_2"/>
   <path d="m2664,-2645c-158,-94 -26,-337 138,-256c55,27 80,63 85,120c7,85 -63,161 -147,161c-19,0 -53,-11 -76,-25z" id="svg_3"/>
   <path d="m3285,-2631c-39,-22 -75,-63 -85,-95c-25,-74 37,-175 114,-190c53,-9 123,21 153,65c42,61 23,159 -39,204c-31,23 -115,32 -143,16z" id="svg_4"/>
   <path d="m3885,-2634c-52,-23 -78,-60 -83,-119c-5,-63 13,-105 58,-137c94,-67 233,1 233,114c0,111 -109,186 -208,142z" id="svg_5" transform="matrix(1 0 0 1 0 0)"/>
  </g>
 </g>
</svg>