<?xml version="1.0"?>
<svg width="512" height="512" xmlns="http://www.w3.org/2000/svg" xmlns:svg="http://www.w3.org/2000/svg" preserveAspectRatio="xMidYMid meet" version="1.0">
 <g class="layer">
  <title>Layer 1</title>
  <g fill="#000000" id="svg_1" transform="matrix(0.1 0 0 -0.1 0 0)">
   <path d="m961,-14c-147,-41 -267,-162 -306,-310c-20,-76 -20,-4396 0,-4472c41,-155 171,-280 324,-313c74,-16 3088,-16 3164,0c157,33 293,170 327,327c8,38 11,557 11,1846l0,1793l-29,39c-35,46 -1055,1064 -1091,1088c-22,15 -127,16 -1190,15c-900,-1 -1175,-4 -1210,-13zm2240,-543c0,-263 4,-361 14,-399c41,-155 171,-280 324,-313c33,-7 179,-11 392,-11l340,0l0,-1711c0,-1276 -3,-1722 -12,-1757c-16,-64 -86,-134 -150,-150c-67,-17 -3029,-17 -3096,0c-64,16 -134,86 -150,150c-17,67 -17,4309 0,4376c15,60 87,135 144,150c26,6 405,10 1117,11l1077,1l0,-347zm673,-511c-294,-4 -328,2 -393,67c-65,65 -70,92 -70,388l0,248l350,-350l350,-350l-237,-3z" fill="#a700ef" id="svg_2"/>
   <path d="m1530,-778c-16,-16 -32,-45 -35,-65c-5,-25 -13,-37 -30,-41c-40,-10 -122,-94 -152,-154c-24,-48 -28,-70 -28,-137c0,-67 4,-89 28,-137c49,-100 139,-162 255,-177c80,-10 106,-24 127,-67c19,-40 19,-48 -1,-89c-25,-53 -63,-65 -208,-65c-71,0 -136,-5 -150,-11c-60,-28 -71,-122 -20,-170c21,-19 38,-24 98,-27l73,-4l17,-38c20,-46 72,-75 116,-65c39,9 78,50 86,92c5,26 15,38 45,53c53,27 104,81 136,143c24,45 28,63 28,137c-1,77 -4,91 -34,148c-53,98 -139,156 -248,168c-77,9 -111,28 -129,71c-19,43 -5,93 33,123c23,18 41,20 155,20c89,0 139,4 163,14c35,15 65,59 65,96c0,37 -30,81 -65,96c-19,8 -59,14 -90,14c-53,0 -55,1 -69,34c-29,71 -114,90 -166,38z" fill="#a700ef" id="svg_3"/>
   <path d="m2379,-1739c-49,-49 -36,-134 25,-166c28,-14 95,-16 703,-13l671,3l26,24c51,48 40,142 -20,170c-18,8 -224,11 -700,11l-676,0l-29,-29z" fill="#a700ef" id="svg_4"/>
   <path d="m1333,-2362c-57,-28 -67,-122 -17,-169l26,-24l1218,0l1218,0l26,24c51,48 40,142 -20,170c-34,15 -2419,14 -2451,-1z" fill="#a700ef" id="svg_5"/>
   <path d="m1333,-3002c-57,-28 -67,-122 -17,-169l26,-24l1218,0l1218,0l26,24c51,48 40,142 -20,170c-34,15 -2419,14 -2451,-1z" fill="#a700ef" id="svg_6"/>
   <path d="m1333,-3642c-57,-28 -67,-122 -17,-169l26,-24l1218,0l1218,0l26,24c51,48 40,142 -20,170c-34,15 -2419,14 -2451,-1z" fill="#a700ef" id="svg_7"/>
   <path d="m1333,-4282c-57,-28 -67,-122 -17,-169l26,-24l671,-3c493,-2 679,1 700,9c61,26 77,121 28,170l-29,29l-679,-1c-448,0 -685,-4 -700,-11z" fill="#a700ef" id="svg_8"/>
  </g>
 </g>
</svg>