<?xml version="1.0"?>
<svg width="256" height="256" xmlns="http://www.w3.org/2000/svg" xmlns:svg="http://www.w3.org/2000/svg" preserveAspectRatio="xMidYMid meet" version="1.0">
 <g class="layer">
  <title>Layer 1</title>
  <g fill="#000000" id="svg_1" transform="matrix(0.1 0 0 -0.1 0 0)">
   <path d="m252,-21c-53,-26 -87,-70 -102,-129c-8,-32 -10,-340 -8,-1065c3,-999 3,-1021 23,-1054c11,-19 37,-48 58,-65l39,-31l241,-3c217,-3 243,-1 254,14c9,12 9,22 2,35c-9,18 -25,19 -225,19c-241,0 -268,6 -298,63c-16,29 -17,114 -14,1065l3,1034l33,29l32,29l595,0l595,0l0,-140c0,-110 4,-148 16,-173c46,-91 86,-107 264,-107l140,0l0,-326c0,-332 3,-364 38,-364c41,0 42,11 42,362c0,284 -3,345 -16,376c-21,50 -386,415 -436,436c-32,14 -117,16 -635,16c-590,0 -599,0 -641,-21zm1498,-407c-167,-5 -200,27 -200,198l0,105l150,-150l150,-150l-100,-3z" fill="#8b00ef" id="svg_2"/>
   <path d="m419,-446c-9,-11 -10,-20 -2,-32c9,-15 43,-17 338,-17c295,0 329,2 338,17c8,12 7,21 -2,32c-12,14 -54,16 -336,16c-282,0 -324,-2 -336,-16z" fill="#8b00ef" id="svg_3"/>
   <path d="m420,-704c-6,-8 -9,-24 -5,-36c6,-20 10,-20 646,-20c583,0 640,1 646,16c3,9 2,24 -4,33c-9,14 -73,16 -640,19c-543,2 -632,0 -643,-12z" fill="#8b00ef" id="svg_4"/>
   <path d="m422,-932c-16,-16 -15,-33 4,-52c14,-14 85,-16 630,-16c405,0 622,4 635,10c21,12 25,40 7,58c-17,17 -1259,17 -1276,0z" fill="#8b00ef" id="svg_5"/>
   <path d="m808,-1272c-21,-7 -61,-66 -197,-297c-108,-182 -171,-298 -171,-315c0,-43 16,-63 84,-101c66,-37 127,-46 168,-24c31,17 32,4 4,-44c-31,-52 -33,-100 -6,-144c22,-36 41,-49 91,-58c27,-5 38,-13 46,-35c13,-34 67,-70 104,-70c20,0 30,-7 39,-31c17,-41 65,-69 117,-69c34,0 47,-6 77,-36c35,-35 39,-36 91,-32c32,3 63,12 74,22c18,16 21,15 72,-15c97,-57 181,-43 215,36c13,32 15,33 44,24c54,-19 136,27 155,89c5,16 14,22 36,22c55,0 119,51 119,94c0,11 8,13 34,9c53,-8 105,22 128,75c18,40 19,47 5,88c-14,43 -14,45 7,57c11,6 42,10 68,8c37,-2 59,4 107,29c33,18 68,41 77,52c37,40 24,71 -149,363c-204,344 -208,347 -326,267c-76,-51 -96,-82 -95,-143c0,-47 -1,-49 -28,-49c-15,0 -57,11 -94,25c-80,30 -108,31 -201,5c-71,-20 -72,-20 -115,0c-58,26 -112,25 -192,-5c-74,-28 -103,-31 -141,-13c-18,8 -25,19 -25,41c0,51 -30,97 -88,134c-66,43 -99,53 -134,41zm87,-101c82,-53 80,-61 -77,-327c-93,-156 -142,-229 -161,-240c-26,-14 -31,-13 -85,16c-31,17 -56,37 -54,44c4,17 315,540 322,540c3,0 28,-15 55,-33zm1286,-241c112,-189 156,-272 149,-280c-5,-7 -32,-23 -60,-36c-71,-33 -85,-24 -160,105c-83,141 -93,151 -125,119c-20,-20 -18,-25 57,-152c58,-98 60,-103 42,-117c-31,-24 -7,-35 -347,167c-109,65 -206,118 -216,118c-25,0 -41,-20 -41,-51c0,-31 -44,-79 -71,-79c-17,0 -19,9 -19,105c0,130 9,143 119,170c93,23 101,22 195,-10c74,-25 91,-26 147,-9c9,2 21,-5 29,-20c14,-28 33,-38 54,-30c27,11 26,37 -4,90c-30,55 -37,88 -21,113c11,17 93,70 105,67c4,-1 80,-123 167,-270zm-833,80c2,-2 -5,-17 -15,-32c-14,-22 -19,-53 -22,-151l-3,-122l30,-31c17,-16 41,-30 54,-30c39,1 103,36 135,74l30,37l239,-141c131,-78 247,-149 257,-157c34,-31 15,-83 -31,-83c-13,0 -94,42 -180,93c-210,125 -200,121 -218,106c-8,-6 -14,-21 -14,-34c0,-17 27,-38 140,-104c106,-63 142,-89 146,-107c7,-27 -18,-64 -43,-64c-8,0 -75,36 -150,80c-74,44 -143,80 -154,80c-23,0 -41,-31 -29,-50c5,-8 55,-42 112,-75c87,-51 104,-65 106,-89c4,-33 -13,-56 -41,-56c-12,0 -63,25 -114,56c-103,61 -138,67 -138,22c0,-20 11,-33 50,-60c52,-34 67,-66 45,-94c-18,-21 -56,-17 -106,12c-37,22 -42,29 -34,44c28,52 -6,143 -60,163c-27,10 -30,16 -30,58c0,62 -34,105 -96,120c-33,9 -49,19 -60,41c-31,61 -111,85 -168,50c-28,-17 -29,-17 -57,9c-34,32 -75,41 -121,29c-18,-6 -34,-10 -35,-10c-12,0 12,48 109,211c98,165 116,189 133,184c87,-27 101,-27 187,4c73,26 129,33 146,17zm-463,-500c19,-28 13,-44 -37,-108c-35,-45 -70,-50 -93,-14c-19,28 -13,44 37,109c35,44 70,49 93,13zm193,-18c23,-23 11,-58 -49,-143c-51,-71 -65,-85 -88,-85c-32,0 -51,16 -51,45c0,12 28,61 62,108c51,71 67,87 88,87c14,0 31,-5 38,-12zm147,-108c9,-10 15,-28 13,-38c-8,-30 -121,-181 -141,-188c-23,-7 -67,21 -67,45c0,10 29,59 65,109c71,99 94,112 130,72zm101,-175c15,-23 15,-27 -1,-52c-46,-72 -73,-87 -107,-56c-26,23 -22,53 13,96c37,44 71,49 95,12z" fill="#8b00ef" id="svg_6"/>
  </g>
 </g>
</svg>