<?xml version="1.0"?>
<svg width="512" height="512" xmlns="http://www.w3.org/2000/svg" xmlns:svg="http://www.w3.org/2000/svg" preserveAspectRatio="xMidYMid meet" version="1.0">
 <g class="layer">
  <title>Layer 1</title>
  <g fill="#000000" id="svg_1" transform="matrix(0.1 0 0 -0.1 0 0)">
   <path d="m470,-1946c-297,-79 -494,-347 -477,-650c14,-256 175,-469 425,-562c91,-34 239,-41 346,-18c121,27 208,77 301,170c132,132 188,267 188,446c0,180 -56,314 -188,445c-92,92 -166,136 -281,165c-92,24 -233,26 -314,4z" fill="#383ad1" id="svg_2"/>
   <path d="m2430,-1946c-212,-55 -387,-221 -453,-429c-17,-55 -22,-94 -22,-185c0,-91 5,-130 22,-185c53,-167 172,-305 326,-379c108,-52 168,-66 281,-66c175,0 319,61 446,189c124,125 182,262 183,436c1,112 -14,176 -65,285c-75,157 -233,287 -403,330c-93,24 -233,26 -315,4z" fill="#383ad1" id="svg_3"/>
   <path d="m4312,-1950c-112,-30 -187,-74 -277,-165c-132,-131 -188,-265 -188,-445c0,-179 56,-314 188,-446c135,-136 282,-192 479,-181c163,8 294,67 410,183c72,72 117,145 154,246c23,64 26,88 26,198c0,110 -3,134 -26,198c-69,192 -204,328 -396,400c-94,35 -265,41 -370,12z" fill="#383ad1" id="svg_4"/>
  </g>
 </g>
</svg>