<?xml version="1.0"?>
<svg width="512" height="512" xmlns="http://www.w3.org/2000/svg" xmlns:svg="http://www.w3.org/2000/svg" preserveAspectRatio="xMidYMid meet" version="1.0">
 <g class="layer">
  <title>Layer 1</title>
  <g fill="#000000" id="svg_1" transform="matrix(0.1 0 0 -0.1 0 0)">
   <path d="m1617,-860c-245,-30 -465,-185 -572,-404c-65,-132 -80,-197 -79,-346c0,-113 3,-134 31,-215c44,-130 93,-207 192,-305c71,-71 103,-94 181,-133c123,-60 207,-80 340,-79c334,2 610,208 712,532c19,63 23,96 23,210c0,152 -18,230 -81,350c-139,266 -447,426 -747,390zm228,-453c64,-33 128,-99 157,-162c33,-75 32,-182 -5,-256c-120,-246 -455,-250 -577,-7c-50,100 -41,220 23,314c67,100 162,147 282,141c50,-3 84,-11 120,-30z" fill="#a700ef" id="svg_2"/>
   <path d="m4055,-855c-5,-2 -23,-6 -40,-10c-23,-5 -401,-377 -1578,-1553c-852,-851 -1555,-1560 -1564,-1577c-25,-46 -20,-126 10,-177c47,-81 163,-117 242,-75c17,9 726,712 1577,1564c1126,1126 1549,1556 1555,1578c22,89 -13,182 -84,222c-37,21 -98,36 -118,28z" fill="#a700ef" id="svg_3"/>
   <path d="m3255,-3005c-146,-32 -278,-107 -383,-220c-131,-141 -191,-284 -200,-471c-6,-140 13,-234 73,-359c95,-199 268,-342 485,-401c89,-24 281,-24 370,0c259,70 466,277 536,536c24,89 25,282 1,370c-89,333 -386,562 -727,559c-52,0 -122,-6 -155,-14zm302,-445c109,-54 173,-159 173,-283c0,-97 -23,-152 -94,-223c-71,-71 -126,-94 -223,-94c-123,0 -228,64 -282,170c-43,86 -49,152 -21,241c18,61 30,81 79,130c103,103 235,124 368,59z" fill="#a700ef" id="svg_4"/>
  </g>
 </g>
</svg>