<?xml version="1.0"?>
<svg width="512" height="512" xmlns="http://www.w3.org/2000/svg" xmlns:svg="http://www.w3.org/2000/svg" preserveAspectRatio="xMidYMid meet" version="1.0">
 <g class="layer">
  <title>Layer 1</title>
  <g fill="#000000" id="svg_1" transform="matrix(0.1 0 0 -0.1 0 0)">
   <path d="m2503,-325c-17,-7 -40,-26 -50,-41c-17,-27 -18,-91 -23,-1312l-5,-1284l-485,434c-267,238 -501,445 -519,461c-26,22 -43,27 -83,27c-45,0 -54,-4 -89,-39c-34,-33 -39,-45 -39,-83c0,-31 7,-55 22,-76c13,-17 272,-253 575,-524c373,-333 571,-503 610,-523c50,-27 66,-30 142,-30c74,0 94,4 141,27c39,20 220,175 615,528c308,275 568,513 577,528c10,15 18,46 18,71c0,37 -6,49 -39,82c-35,35 -44,39 -89,39c-43,0 -57,-5 -89,-32c-20,-18 -254,-226 -518,-462l-480,-429l-5,1285c-5,1222 -6,1285 -23,1312c-20,30 -72,56 -109,56c-13,-1 -37,-7 -55,-15z" fill="#a700ef" id="svg_2"/>
   <path d="m62,-3420c-61,-38 -64,-55 -60,-419c4,-301 6,-332 26,-399c81,-269 289,-472 562,-549c62,-17 154,-18 1970,-18l1905,0l78,23c266,77 469,278 548,544c21,67 23,99 26,399c4,276 2,331 -11,362c-29,70 -117,97 -183,57c-57,-34 -58,-37 -64,-390c-5,-298 -7,-330 -26,-382c-61,-164 -178,-278 -343,-334c-53,-18 -124,-19 -1930,-19c-1806,0 -1877,1 -1930,19c-165,56 -282,170 -343,334c-19,52 -21,84 -26,382c-6,353 -7,356 -64,390c-41,26 -93,25 -135,0z" fill="#a700ef" id="svg_3"/>
   <path d="m870,-3928c-40,-20 -80,-74 -80,-109c0,-41 28,-92 62,-113c33,-20 46,-20 1708,-20c1662,0 1675,0 1708,20c34,21 62,72 62,113c0,35 -40,89 -80,109c-33,17 -134,18 -1690,18c-1556,0 -1657,-1 -1690,-18z" fill="#a700ef" id="svg_4"/>
  </g>
 </g>
</svg>