<?xml version="1.0"?>
<svg width="509" height="512" xmlns="http://www.w3.org/2000/svg" xmlns:svg="http://www.w3.org/2000/svg" preserveAspectRatio="xMidYMid meet" version="1.0">
 <g class="layer">
  <title>Layer 1</title>
  <g fill="#000000" id="svg_1" transform="matrix(0.1 0 0 -0.1 0 0)">
   <path d="m345,-14c-84,-21 -147,-57 -211,-121c-65,-65 -105,-136 -123,-223c-8,-38 -11,-595 -11,-1955c0,-2068 -3,-1952 54,-2065c55,-109 172,-198 296,-226c44,-10 117,-16 199,-16l131,0l0,-182c0,-176 1,-183 25,-224c15,-26 43,-54 69,-69l44,-26l439,3l439,3l36,24c19,13 46,40 59,59c23,34 24,44 27,224l3,188l614,0l613,0l4,-184l3,-184l30,-44c18,-25 49,-52 75,-65c44,-23 48,-23 465,-23c387,0 423,2 460,19c48,22 79,54 100,103c11,29 15,77 15,208l0,170l108,0c155,0 235,14 318,55c128,63 220,189 243,335c6,36 11,203 11,371l0,306l53,12c62,14 123,60 143,107c20,47 20,431 0,477c-21,50 -77,94 -140,108l-56,12l0,532l0,532l46,6c57,6 111,47 142,107c21,41 22,57 22,241c0,186 -1,198 -23,240c-30,57 -91,100 -151,106l-46,6l0,336c0,271 -3,348 -15,396c-42,159 -185,295 -344,325c-85,16 -4101,12 -4166,-4zm4204,-250c23,-16 54,-50 69,-75l27,-46l3,-342l3,-343l-185,0l-185,0l-3,220l-3,220l-33,32l-32,33l-1748,3c-1218,2 -1758,0 -1784,-8c-20,-6 -46,-22 -57,-37c-21,-26 -21,-26 -21,-1700l0,-1675l34,-34l34,-34l1762,0c1277,0 1767,3 1783,11c55,28 57,37 57,272l0,217l190,0l190,0l0,-324c0,-359 -3,-382 -63,-445c-18,-18 -50,-42 -72,-52c-39,-18 -114,-19 -2078,-19c-1687,0 -2043,2 -2070,13c-49,21 -98,67 -118,112c-18,38 -19,119 -19,1958c0,1868 0,1919 19,1955c22,42 62,82 106,105c27,15 228,16 2091,14l2061,-2l42,-29zm-499,-666l0,-140l-87,0c-102,0 -153,-19 -196,-69c-43,-52 -49,-89 -45,-308l3,-201l31,-38c57,-71 74,-79 190,-82l104,-4l0,-534l0,-534l-77,0c-98,0 -144,-13 -189,-52c-67,-59 -69,-69 -69,-303c0,-234 2,-244 69,-303c45,-39 91,-52 189,-52l77,0l0,-140l0,-140l-1615,0l-1615,0l0,1520l0,1520l1615,0l1615,0l0,-140zm810,-490l0,-130l-460,0l-460,0l0,130l0,130l460,0l460,0l0,-130zm-210,-885l0,-535l-185,0l-185,0l0,535l0,535l185,0l185,0l0,-535zm220,-890l0,-125l-465,0l-465,0l0,125l0,125l465,0l465,0l0,-125zm-3280,-1560l0,-135l-345,0l-345,0l0,135l0,135l345,0l345,0l0,-135zm2380,0l0,-135l-350,0l-350,0l0,135l0,135l350,0l350,0l0,-135z" fill="#383ad1" id="svg_2"/>
   <path d="m2300,-1501c-315,-56 -569,-288 -656,-599c-14,-50 -19,-100 -19,-215c1,-143 2,-154 33,-245c43,-124 98,-215 185,-306c162,-171 355,-254 590,-254c322,0 589,165 736,457c58,115 76,201 76,358c-1,165 -14,226 -81,360c-102,208 -288,361 -514,425c-87,24 -266,34 -350,19zm280,-231c151,-35 313,-166 382,-308c46,-96 62,-165 62,-265c0,-44 -6,-105 -13,-135c-49,-206 -221,-382 -431,-441c-75,-21 -234,-17 -315,9c-188,58 -339,210 -398,397c-25,81 -29,240 -8,315c53,190 209,357 387,415c109,35 221,40 334,13z" fill="#383ad1" id="svg_3"/>
  </g>
 </g>
</svg>