<?xml version="1.0" standalone="no"?>
<!DOCTYPE svg PUBLIC "-//W3C//DTD SVG 20010904//EN"
 "http://www.w3.org/TR/2001/REC-SVG-20010904/DTD/svg10.dtd">
<svg version="1.0" xmlns="http://www.w3.org/2000/svg"
 width="626.000000pt" height="626.000000pt" viewBox="0 0 626.000000 626.000000"
 preserveAspectRatio="xMidYMid meet">

<g transform="translate(0.000000,626.000000) scale(0.100000,-0.100000)"
fill="#000000" stroke="none">
<path d="M2678 4398 c-3 -141 -4 -144 -37 -206 -59 -109 -160 -182 -283 -205
-89 -16 -162 1 -281 68 -54 31 -103 57 -109 58 -12 2 -22 -14 -206 -333 -74
-129 -141 -244 -148 -255 -13 -20 -8 -24 86 -78 173 -101 241 -201 241 -356 0
-166 -65 -265 -242 -368 l-97 -56 145 -251 c80 -138 159 -275 175 -303 16 -29
33 -55 37 -57 4 -3 34 11 67 31 157 95 249 118 362 89 115 -29 205 -101 259
-206 26 -51 28 -65 31 -197 l4 -143 358 0 358 0 4 138 c3 132 4 140 36 204 51
104 149 181 264 208 101 23 174 6 313 -71 59 -33 109 -58 110 -57 1 2 73 127
160 278 86 151 166 289 176 306 l19 32 -86 48 c-113 63 -172 118 -215 196 -33
61 -34 67 -34 173 0 101 2 114 29 165 41 79 98 133 208 197 l98 57 -21 35
c-12 20 -91 157 -177 306 -85 148 -156 271 -157 273 -1 1 -51 -24 -110 -57
-63 -35 -131 -65 -164 -72 -160 -33 -338 57 -414 210 -31 63 -32 71 -35 203
l-4 138 -358 0 -358 0 -4 -142z m532 -635 c196 -46 368 -188 460 -378 135
-279 67 -615 -167 -825 -65 -58 -208 -132 -298 -155 -78 -20 -253 -20 -330 0
-237 61 -425 237 -502 470 -23 70 -27 96 -27 210 0 114 4 140 27 210 38 114
91 199 178 285 174 175 413 241 659 183z"/>
<path d="M2960 3570 c-106 -19 -190 -63 -266 -139 -193 -192 -190 -502 4 -696
69 -68 150 -110 255 -131 181 -37 378 42 486 196 175 249 88 593 -182 724 -99
49 -196 64 -297 46z"/>
</g>
</svg>
